<?xml version="1.0" encoding="utf-8"?>
<!-- Generator: Adobe Illustrator 22.1.0, SVG Export Plug-In . SVG Version: 6.00 Build 0)  -->
<svg version="1.1" id="图层_1" xmlns:cc="https://creativecommons.org/licenses/by-nc-nd/4.0/"
	 xmlns="http://www.w3.org/2000/svg" xmlns:xlink="http://www.w3.org/1999/xlink" x="0px" y="0px" viewBox="0 0 128 128"
	 style="enable-background:new 0 0 128 128;" xml:space="preserve">
<style type="text/css">
	.st0{fill:none;stroke:#404040;stroke-width:0.5;}
	.st1{fill:#404040;}
	.st2{fill:none;}
	.st3{fill:#595959;}
	#logo-system01 {
  -webkit-animation: spin 14s linear infinite;
  -moz-animation: spin 14s linear infinite;
  -ms-animation: spin 14s linear infinite;
  animation: spin 14s linear infinite;
	}
	#logo-system02 {
		-webkit-animation: spin 28s linear infinite;
		-moz-animation: spin 28s linear infinite;
		-ms-animation: spin 28s linear infinite;
		animation: spin 28s linear infinite;
	}
	#logo-system03 {
    -webkit-animation: spin 42s linear infinite;
    -moz-animation: spin 42s linear infinite;
    -ms-animation: spin 42s linear infinite;
    animation: spin 42s linear infinite;
	}
	.logo-system {
		-webkit-transform-origin: 50% 50%;
		-moz-transform-origin: 50% 50%;
		-ms-transform-origin: 50% 50%;
		transform-origin: 50% 50%;
		-webkit-transform-box: fill-box;
		-moz-transform-box: fill-box;
		-ms-transform-box: fill-box;
		transform-box: fill-box;
	}
	@-webkit-keyframes spin {
		100% {
			-webkit-transform: rotate(360deg)
		}
	}

	@-moz-keyframes spin {
		100% {
			-moz-transform: rotate(360deg)
		}
	}

	@-ms-keyframes spin {
		100% {
			-ms-transform: rotate(360deg)
		}
	}

	@keyframes spin {
		100% {
			transform: rotate(360deg)
		}
	}
</style>
<g id="logo-system01" class="logo-system">
	<g transform="translate(17, 8)">
		<circle class="st0" cx="52" cy="56" r="52"/>
		<circle class="st1" cx="52" cy="4" r="4"/>
		<circle class="st2" cx="52" cy="108" r="4"/>
	</g>
</g>
<g id="logo-system02" class="logo-system">
	<g transform="translate(61, 60) rotate(-120) translate(-61, -60) translate(9, 4)">
		<circle class="st0" cx="52" cy="56" r="52"/>
		<circle class="st1" cx="52" cy="4" r="4"/>
		<circle class="st2" cx="52" cy="108" r="4"/>
	</g>
</g>
<g id="logo-system03" class="logo-system">
	<g transform="translate(65, 68) rotate(-240) translate(-65, -68) translate(13, 12)">
		<circle class="st0" cx="52" cy="56" r="52"/>
		<circle class="st1" cx="52" cy="4" r="4"/>
		<circle class="st2" cx="52" cy="108" r="4"/>
	</g>
</g>
<g>
	<path class="st3" d="M38.5,72.5c0,1-0.2,1.8-0.7,2.5c-0.5,0.8-1.1,1.2-1.8,1.2c-0.8,0-1.4-0.4-1.9-1.2c-0.4-0.7-0.7-1.6-0.7-2.5
		v-2.7h1.2v2.7c0,0.5,0.1,1,0.3,1.4c0.2,0.5,0.6,0.8,1,0.8c0.4,0,0.7-0.3,0.9-0.8c0.2-0.4,0.3-0.9,0.3-1.4v-2.8c0-1.4-0.3-2.8-1-4.2
		c-0.6-1.1-1.2-2.2-1.8-3.4c-0.6-1.4-1-3-1-4.6v-2.8c0-1,0.2-1.8,0.7-2.5c0.5-0.8,1.1-1.2,1.9-1.2c0.7,0,1.4,0.4,1.8,1.2
		c0.4,0.7,0.7,1.6,0.7,2.5v2.7h-1.2v-2.7c0-0.5-0.1-1-0.3-1.4c-0.2-0.5-0.6-0.8-0.9-0.8c-0.4,0-0.7,0.3-1,0.8
		c-0.2,0.4-0.3,0.9-0.3,1.4v2.8c0,1.4,0.3,2.8,1,4.2c0.6,1.1,1.2,2.3,1.8,3.4c0.6,1.4,1,3,1,4.6V72.5z"/>
	<path class="st3" d="M48.6,60.6c0,1-0.2,1.8-0.7,2.5c-0.5,0.8-1.1,1.2-1.9,1.2h-1.2v11.7h-1.3V51h2.5c0.7,0,1.4,0.4,1.9,1.2
		c0.4,0.7,0.7,1.6,0.7,2.5V60.6z M47.3,60.6v-5.8c0-0.5-0.1-1-0.3-1.4c-0.2-0.5-0.6-0.8-0.9-0.8h-1.2v10.2h1.2
		c0.4,0,0.7-0.3,0.9-0.8C47.2,61.6,47.3,61.1,47.3,60.6z"/>
	<path class="st3" d="M58.4,72.5c0,1-0.2,1.8-0.7,2.5c-0.5,0.8-1.1,1.2-1.9,1.2c-0.7,0-1.4-0.4-1.8-1.2c-0.4-0.7-0.7-1.6-0.7-2.5
		V54.6c0-1,0.2-1.8,0.7-2.5c0.5-0.8,1.1-1.2,1.8-1.2c0.8,0,1.4,0.4,1.9,1.2c0.4,0.7,0.7,1.6,0.7,2.5V72.5z M57.1,72.5V54.6
		c0-0.5-0.1-1-0.3-1.4c-0.2-0.5-0.6-0.8-1-0.8c-0.4,0-0.7,0.3-0.9,0.8c-0.2,0.4-0.3,0.9-0.3,1.4v17.8c0,0.5,0.1,1,0.3,1.4
		c0.2,0.5,0.6,0.8,0.9,0.8c0.4,0,0.7-0.3,1-0.8C57,73.5,57.1,73,57.1,72.5z"/>
	<path class="st3" d="M73.8,76.1h-4.3V51h1.3v23.5h3V76.1z"/>
	<path class="st3" d="M64.7,76.1h-1.3V51h1.3V76.1z"/>
	<path class="st3" d="M83.2,76.1h-4.3V51h4.3v1.6h-3v10.2h2.5v1.6h-2.5v10.2h3V76.1z"/>
	<path class="st3" d="M93,76.1h-1.3v-9.6c0-0.5-0.1-1-0.3-1.4c-0.2-0.5-0.6-0.8-0.9-0.8h-1.2v11.7H88V51h2.5c0.7,0,1.4,0.4,1.9,1.2
		c0.4,0.7,0.7,1.6,0.7,2.5V60c0,0.8-0.2,1.5-0.5,2.2c-0.3,0.7-0.7,1.1-1.3,1.4c0.5,0.3,1,0.7,1.3,1.4c0.3,0.7,0.5,1.4,0.5,2.2V76.1z
		M91.8,60.6v-5.8c0-0.5-0.1-1-0.3-1.4c-0.2-0.5-0.6-0.8-0.9-0.8h-1.2v10.2h1.2c0.4,0,0.7-0.3,0.9-0.8
		C91.6,61.6,91.8,61.1,91.8,60.6z"/>
</g>
</svg>
